<svg xmlns="http://www.w3.org/2000/svg" xmlns:xlink="http://www.w3.org/1999/xlink" width="500" zoomAndPan="magnify" viewBox="0 0 375 374.999991" height="500" preserveAspectRatio="xMidYMid meet" version="1.0"><defs><g/><clipPath id="d7bdb4df80"><path d="M 14 21 L 362 21 L 362 370 L 14 370 Z M 14 21 " clip-rule="nonzero"/></clipPath><clipPath id="7c03824d2b"><path d="M -20.75 64.414062 L 318.578125 -12.792969 L 395.785156 326.535156 L 56.457031 403.738281 Z M -20.75 64.414062 " clip-rule="nonzero"/></clipPath><clipPath id="453732b265"><path d="M -20.75 64.414062 L 318.578125 -12.792969 L 395.785156 326.535156 L 56.457031 403.738281 Z M -20.75 64.414062 " clip-rule="nonzero"/></clipPath><clipPath id="3a9cacdc9a"><path d="M -20.75 64.414062 L 318.578125 -12.792969 L 395.785156 326.535156 L 56.457031 403.738281 Z M -20.75 64.414062 " clip-rule="nonzero"/></clipPath></defs><g clip-path="url(#d7bdb4df80)"><g clip-path="url(#7c03824d2b)"><g clip-path="url(#453732b265)"><g clip-path="url(#3a9cacdc9a)"><path fill="#804dee" d="M 156.71875 60.125 C 231.472656 43.117188 305.859375 89.929688 322.867188 164.679688 C 339.875 239.429688 293.0625 313.816406 218.3125 330.824219 C 143.5625 347.832031 69.171875 301.023438 52.164062 226.269531 C 35.15625 151.519531 81.96875 77.132812 156.71875 60.125 Z M 220.054688 338.476562 C 185.140625 346.421875 148.632812 341.355469 117.25 324.214844 C 93.582031 311.28125 73.976562 292.175781 60.554688 268.964844 L 51.988281 273.921875 C 66.320312 298.699219 87.246094 319.089844 112.507812 332.890625 C 146.007812 351.191406 184.980469 356.597656 222.246094 348.121094 Z M 340.503906 228.875 C 345.4375 206.328125 345.324219 183.410156 340.167969 160.742188 L 330.523438 162.9375 C 335.355469 184.171875 335.460938 205.648438 330.84375 226.757812 C 321.835938 267.886719 295.625 303.191406 258.929688 323.617188 L 263.742188 332.261719 C 302.910156 310.453125 330.890625 272.773438 340.503906 228.875 Z M 283.5 71.796875 C 250.316406 46.066406 209.195312 34.832031 167.71875 40.167969 C 162.734375 40.808594 157.707031 41.703125 152.785156 42.824219 L 154.976562 52.46875 C 159.59375 51.417969 164.308594 50.582031 168.984375 49.976562 C 207.832031 44.980469 246.34375 55.507812 277.4375 79.617188 Z M 69.121094 108.917969 L 61.132812 103.082031 C 34.386719 139.695312 24.816406 186.03125 34.867188 230.207031 L 44.511719 228.011719 C 35.097656 186.628906 44.066406 143.21875 69.121094 108.917969 Z M 357.179688 156.871094 C 353.34375 140.003906 347.082031 123.910156 338.574219 109.035156 C 327.820312 90.226562 313.777344 73.757812 296.828125 60.089844 C 255.070312 26.417969 201.15625 13.925781 148.914062 25.8125 L 151.109375 35.457031 C 200.382812 24.246094 251.234375 36.03125 290.617188 67.789062 C 306.601562 80.683594 319.851562 96.210938 329.988281 113.941406 C 338.011719 127.972656 343.914062 143.152344 347.535156 159.066406 C 351.4375 176.210938 352.578125 193.695312 350.929688 211.035156 L 360.78125 211.96875 C 362.527344 193.582031 361.316406 175.042969 357.179688 156.871094 Z M 50.632812 104.957031 C 65.1875 82.9375 85.015625 64.582031 107.980469 51.878906 L 103.191406 43.222656 C 78.839844 56.695312 57.808594 76.15625 42.382812 99.503906 C 27.300781 122.308594 17.695312 148.652344 14.601562 175.683594 L 24.429688 176.808594 C 27.347656 151.316406 36.40625 126.472656 50.632812 104.957031 Z M 259.96875 353.707031 C 286.875 341.417969 310.375 322.238281 327.921875 298.246094 L 319.941406 292.40625 C 303.390625 315.035156 281.230469 333.121094 255.863281 344.707031 C 245.667969 349.359375 234.921875 352.988281 223.925781 355.492188 C 196.601562 361.707031 168.042969 360.839844 141.335938 352.984375 C 112.980469 344.636719 87.351562 328.785156 67.21875 307.136719 C 47.644531 286.09375 33.910156 260.070312 27.5 231.882812 L 17.855469 234.078125 C 24.652344 263.960938 39.214844 291.554688 59.96875 313.875 C 81.316406 336.820312 108.480469 353.628906 138.539062 362.472656 C 166.863281 370.804688 197.148438 371.726562 226.117188 365.136719 C 237.773438 362.484375 249.160156 358.640625 259.96875 353.707031 Z M 259.96875 353.707031 " fill-opacity="1" fill-rule="nonzero"/></g></g></g></g><g fill="#ffffff" fill-opacity="1"><g transform="translate(87.845563, 253.103365)"><g><path d="M 84.375 -55.484375 C 88.226562 -52.953125 90.960938 -49.707031 92.578125 -45.75 C 94.203125 -41.800781 94.609375 -37.242188 93.796875 -32.078125 C 92.992188 -27.210938 91.117188 -22.675781 88.171875 -18.46875 C 85.234375 -14.257812 81.332031 -10.535156 76.46875 -7.296875 C 72.113281 -4.359375 67.347656 -2.101562 62.171875 -0.53125 C 57.003906 1.039062 51.6875 1.875 46.21875 1.96875 C 40.738281 1.96875 35.664062 1.210938 31 -0.296875 C 26.34375 -1.816406 22.296875 -4.097656 18.859375 -7.140625 C 13.785156 -11.398438 10.640625 -16.671875 9.421875 -22.953125 L 32.375 -32.84375 C 32.28125 -31.820312 32.457031 -30.550781 32.90625 -29.03125 C 33.363281 -27.507812 34.25 -26.039062 35.5625 -24.625 C 36.882812 -23.207031 38.660156 -21.988281 40.890625 -20.96875 C 43.117188 -19.957031 46.007812 -19.453125 49.5625 -19.453125 C 55.34375 -19.453125 59.878906 -20.691406 63.171875 -23.171875 C 66.460938 -25.660156 68.363281 -28.273438 68.875 -31.015625 C 69.070312 -32.640625 68.738281 -34.160156 67.875 -35.578125 C 67.019531 -36.992188 65.578125 -38.109375 63.546875 -38.921875 C 59.691406 -40.335938 55.585938 -41.523438 51.234375 -42.484375 C 46.878906 -43.453125 42.671875 -44.671875 38.609375 -46.140625 C 34.554688 -47.609375 30.929688 -49.554688 27.734375 -51.984375 C 24.546875 -54.421875 22.191406 -57.820312 20.671875 -62.1875 C 19.960938 -64.207031 19.554688 -66.226562 19.453125 -68.25 C 19.359375 -70.28125 19.460938 -72.363281 19.765625 -74.5 C 20.578125 -79.363281 22.453125 -84.070312 25.390625 -88.625 C 28.328125 -93.1875 32.078125 -97.039062 36.640625 -100.1875 C 40.898438 -103.125 45.460938 -105.378906 50.328125 -106.953125 C 55.191406 -108.523438 60.207031 -109.3125 65.375 -109.3125 C 70.539062 -109.3125 75.378906 -108.550781 79.890625 -107.03125 C 84.398438 -105.507812 88.273438 -103.28125 91.515625 -100.34375 C 94.765625 -97.5 97.148438 -94.304688 98.671875 -90.765625 L 79.515625 -78.90625 C 77.785156 -81.84375 75.476562 -84.195312 72.59375 -85.96875 C 69.707031 -87.75 66.285156 -88.640625 62.328125 -88.640625 C 56.859375 -88.640625 52.425781 -87.421875 49.03125 -84.984375 C 45.632812 -82.554688 43.632812 -79.363281 43.03125 -75.40625 C 42.71875 -73.582031 43.296875 -71.957031 44.765625 -70.53125 C 46.242188 -69.113281 48.222656 -67.847656 50.703125 -66.734375 C 53.179688 -65.617188 56.015625 -64.628906 59.203125 -63.765625 C 62.398438 -62.910156 65.59375 -62.050781 68.78125 -61.1875 C 71.976562 -60.332031 74.945312 -59.445312 77.6875 -58.53125 C 80.425781 -57.613281 82.65625 -56.597656 84.375 -55.484375 Z M 84.375 -55.484375 "/></g></g></g><g fill="#ffffff" fill-opacity="1"><g transform="translate(181.490519, 253.103365)"><g><path d="M 61.109375 -20.984375 C 65.972656 -20.984375 70.9375 -22.097656 76 -24.328125 C 81.070312 -26.554688 86.398438 -30.304688 91.984375 -35.578125 L 104.59375 -21.4375 C 97.394531 -13.726562 89.640625 -7.898438 81.328125 -3.953125 C 73.023438 -0.00390625 64.816406 1.96875 56.703125 1.96875 C 49.410156 1.96875 42.796875 0.472656 36.859375 -2.515625 C 30.929688 -5.503906 26.039062 -9.53125 22.1875 -14.59375 C 18.34375 -19.664062 15.609375 -25.570312 13.984375 -32.3125 C 12.359375 -39.050781 12.15625 -46.21875 13.375 -53.8125 C 14.59375 -61.414062 17.101562 -68.5625 20.90625 -75.25 C 24.707031 -81.945312 29.394531 -87.828125 34.96875 -92.890625 C 40.539062 -97.960938 46.796875 -101.96875 53.734375 -104.90625 C 60.679688 -107.84375 67.804688 -109.3125 75.109375 -109.3125 C 81.898438 -109.3125 88.15625 -108.039062 93.875 -105.5 C 99.601562 -102.96875 104.953125 -98.765625 109.921875 -92.890625 L 93.953125 -76.625 C 90.410156 -80.570312 86.835938 -83.226562 83.234375 -84.59375 C 79.640625 -85.96875 75.765625 -86.65625 71.609375 -86.65625 C 67.453125 -86.65625 63.394531 -85.789062 59.4375 -84.0625 C 55.488281 -82.34375 51.914062 -80.015625 48.71875 -77.078125 C 45.53125 -74.140625 42.820312 -70.664062 40.59375 -66.65625 C 38.363281 -62.65625 36.894531 -58.375 36.1875 -53.8125 C 35.476562 -49.257812 35.578125 -45.003906 36.484375 -41.046875 C 37.398438 -37.097656 39 -33.628906 41.28125 -30.640625 C 43.5625 -27.648438 46.398438 -25.289062 49.796875 -23.5625 C 53.191406 -21.84375 56.960938 -20.984375 61.109375 -20.984375 Z M 61.109375 -20.984375 "/></g></g></g></svg>